<svg width="16" height="16" viewBox="0 0 16 16" fill="none" xmlns="http://www.w3.org/2000/svg">
<g clip-path="url(#clip0_2984_8574)">
<path d="M7.88815 15.9998C7.6903 15.9999 7.49687 15.9413 7.33234 15.8314C7.16781 15.7216 7.03957 15.5654 6.96384 15.3826C6.88812 15.1998 6.86831 14.9987 6.90694 14.8046C6.94556 14.6106 7.04087 14.4324 7.18082 14.2925L12.2955 9.1785C12.4503 9.02373 12.5731 8.83998 12.6569 8.63774C12.7407 8.4355 12.7838 8.21874 12.7838 7.99983C12.7838 7.78093 12.7407 7.56416 12.6569 7.36193C12.5731 7.15969 12.4503 6.97594 12.2955 6.82117L7.18082 1.70717C7.08793 1.61428 7.01424 1.504 6.96397 1.38264C6.9137 1.26127 6.88783 1.1312 6.88783 0.999832C6.88783 0.734531 6.99322 0.480095 7.18082 0.292499C7.36841 0.104902 7.62285 -0.000488281 7.88815 -0.000488281C8.01951 -0.000488281 8.14959 0.0253858 8.27095 0.0756566C8.39232 0.125927 8.50259 0.19961 8.59548 0.292499L13.7095 5.40717C14.3971 6.09479 14.7834 7.0274 14.7834 7.99983C14.7834 8.97226 14.3971 9.90487 13.7095 10.5925L8.59548 15.7072C8.50258 15.8 8.39229 15.8736 8.27093 15.9239C8.14956 15.9741 8.01949 15.9999 7.88815 15.9998Z" fill="#2F353C"/>
<path d="M1.52518 16.0001C1.32739 16 1.13405 15.9413 0.969621 15.8314C0.805191 15.7215 0.677052 15.5653 0.601409 15.3825C0.525767 15.1998 0.506019 14.9987 0.544663 14.8047C0.583307 14.6107 0.678607 14.4326 0.818511 14.2928L6.87518 8.23609C6.90622 8.20512 6.93085 8.16834 6.94765 8.12784C6.96446 8.08734 6.97311 8.04393 6.97311 8.00009C6.97311 7.95624 6.96446 7.91283 6.94765 7.87233C6.93085 7.83183 6.90622 7.79505 6.87518 7.76409L0.818511 1.70742C0.630915 1.51991 0.525489 1.26556 0.525426 1.00032C0.525364 0.735082 0.63067 0.480681 0.818178 0.293085C1.00569 0.105488 1.26004 6.25399e-05 1.52528 2.78157e-08C1.79051 -6.24843e-05 2.04491 0.105243 2.23251 0.292751L8.28985 6.35009C8.72614 6.78825 8.97109 7.38141 8.97109 7.99975C8.97109 8.61809 8.72614 9.21125 8.28985 9.64942L2.23251 15.7074C2.13961 15.8003 2.02932 15.8739 1.90796 15.9241C1.78659 15.9743 1.65652 16.0001 1.52518 16.0001Z" fill="#374957"/>
</g>
<defs>
<clipPath id="clip0_2984_8574">
<rect width="16" height="16" fill="white"/>
</clipPath>
</defs>
</svg>
