<svg width="16" height="16" viewBox="0 0 16 16" fill="none" xmlns="http://www.w3.org/2000/svg">
<g clip-path="url(#clip0_2984_8559)">
<path d="M8.00041 16.0001C7.86914 16.0003 7.73913 15.9746 7.61785 15.9243C7.49657 15.8741 7.38642 15.8004 7.29375 15.7074L2.17642 10.5928C1.48882 9.90512 1.10254 8.97252 1.10254 8.00009C1.10254 7.02765 1.48882 6.09505 2.17642 5.40742L7.29108 0.292751C7.47868 0.105243 7.73308 -6.24843e-05 7.99832 2.78157e-08C8.26356 6.25399e-05 8.51791 0.105488 8.70541 0.293085C8.89292 0.480681 8.99823 0.735082 8.99816 1.00032C8.9981 1.26556 8.89268 1.51991 8.70508 1.70742L3.59042 6.82142C3.43561 6.97619 3.3128 7.15994 3.22902 7.36218C3.14523 7.56442 3.10211 7.78118 3.10211 8.00009C3.10211 8.21899 3.14523 8.43575 3.22902 8.63799C3.3128 8.84023 3.43561 9.02398 3.59042 9.17875L8.70508 14.2928C8.84486 14.4324 8.94012 14.6104 8.97883 14.8042C9.01754 14.998 8.99796 15.1989 8.92257 15.3816C8.84717 15.5643 8.71934 15.7205 8.55522 15.8306C8.39109 15.9407 8.19803 15.9997 8.00041 16.0001Z" fill="#2F353C"/>
<path d="M14.3614 15.9999C14.2301 15.9999 14.1 15.9741 13.9786 15.9239C13.8573 15.8737 13.747 15.8001 13.6541 15.7072L7.60009 9.64989C7.16327 9.21186 6.91797 8.6185 6.91797 7.99989C6.91797 7.38128 7.16327 6.78791 7.60009 6.34989L13.6541 0.292555C13.8434 0.113746 14.095 0.0158341 14.3554 0.0196381C14.6157 0.0234421 14.8644 0.128662 15.0484 0.312925C15.2324 0.497188 15.3372 0.745958 15.3407 1.00634C15.3441 1.26672 15.2458 1.51817 15.0668 1.70722L9.00943 7.76389C8.97838 7.79485 8.95376 7.83164 8.93695 7.87213C8.92015 7.91263 8.9115 7.95604 8.9115 7.99989C8.9115 8.04373 8.92015 8.08715 8.93695 8.12764C8.95376 8.16814 8.97838 8.20492 9.00943 8.23589L15.0668 14.2926C15.2066 14.4323 15.3019 14.6103 15.3405 14.8042C15.3792 14.998 15.3596 15.199 15.2841 15.3817C15.2086 15.5644 15.0807 15.7206 14.9165 15.8307C14.7523 15.9407 14.5591 15.9996 14.3614 15.9999Z" fill="#374957"/>
</g>
<defs>
<clipPath id="clip0_2984_8559">
<rect width="16" height="16" fill="white"/>
</clipPath>
</defs>
</svg>
